<?xml version="1.0" encoding="utf-8"?>
<svg xmlns="http://www.w3.org/2000/svg" xmlns:xlink="http://www.w3.org/1999/xlink" width="600" height="400" viewBox="0 0 2400 1600">
<defs>
  <clipPath id="clip310">
    <rect x="0" y="0" width="2400" height="1600"/>
  </clipPath>
</defs>
<path clip-path="url(#clip310)" d="M0 1600 L2400 1600 L2400 0 L0 0  Z" fill="#ffffff" fill-rule="evenodd" fill-opacity="1"/>
<defs>
  <clipPath id="clip311">
    <rect x="480" y="0" width="1681" height="1600"/>
  </clipPath>
</defs>
<path clip-path="url(#clip310)" d="M287.366 1423.18 L2352.76 1423.18 L2352.76 47.2441 L287.366 47.2441  Z" fill="#ffffff" fill-rule="evenodd" fill-opacity="1"/>
<defs>
  <clipPath id="clip312">
    <rect x="287" y="47" width="2066" height="1377"/>
  </clipPath>
</defs>
<polyline clip-path="url(#clip312)" style="stroke:#000000; stroke-linecap:round; stroke-linejoin:round; stroke-width:2; stroke-opacity:0.1; fill:none" points="345.82,1423.18 345.82,47.2441 "/>
<polyline clip-path="url(#clip312)" style="stroke:#000000; stroke-linecap:round; stroke-linejoin:round; stroke-width:2; stroke-opacity:0.1; fill:none" points="832.941,1423.18 832.941,47.2441 "/>
<polyline clip-path="url(#clip312)" style="stroke:#000000; stroke-linecap:round; stroke-linejoin:round; stroke-width:2; stroke-opacity:0.1; fill:none" points="1320.06,1423.18 1320.06,47.2441 "/>
<polyline clip-path="url(#clip312)" style="stroke:#000000; stroke-linecap:round; stroke-linejoin:round; stroke-width:2; stroke-opacity:0.1; fill:none" points="1807.18,1423.18 1807.18,47.2441 "/>
<polyline clip-path="url(#clip312)" style="stroke:#000000; stroke-linecap:round; stroke-linejoin:round; stroke-width:2; stroke-opacity:0.1; fill:none" points="2294.3,1423.18 2294.3,47.2441 "/>
<polyline clip-path="url(#clip310)" style="stroke:#000000; stroke-linecap:round; stroke-linejoin:round; stroke-width:4; stroke-opacity:1; fill:none" points="287.366,1423.18 2352.76,1423.18 "/>
<polyline clip-path="url(#clip310)" style="stroke:#000000; stroke-linecap:round; stroke-linejoin:round; stroke-width:4; stroke-opacity:1; fill:none" points="345.82,1423.18 345.82,1404.28 "/>
<polyline clip-path="url(#clip310)" style="stroke:#000000; stroke-linecap:round; stroke-linejoin:round; stroke-width:4; stroke-opacity:1; fill:none" points="832.941,1423.18 832.941,1404.28 "/>
<polyline clip-path="url(#clip310)" style="stroke:#000000; stroke-linecap:round; stroke-linejoin:round; stroke-width:4; stroke-opacity:1; fill:none" points="1320.06,1423.18 1320.06,1404.28 "/>
<polyline clip-path="url(#clip310)" style="stroke:#000000; stroke-linecap:round; stroke-linejoin:round; stroke-width:4; stroke-opacity:1; fill:none" points="1807.18,1423.18 1807.18,1404.28 "/>
<polyline clip-path="url(#clip310)" style="stroke:#000000; stroke-linecap:round; stroke-linejoin:round; stroke-width:4; stroke-opacity:1; fill:none" points="2294.3,1423.18 2294.3,1404.28 "/>
<path clip-path="url(#clip310)" d="M308.124 1454.1 Q304.513 1454.1 302.684 1457.66 Q300.878 1461.2 300.878 1468.33 Q300.878 1475.44 302.684 1479.01 Q304.513 1482.55 308.124 1482.55 Q311.758 1482.55 313.564 1479.01 Q315.392 1475.44 315.392 1468.33 Q315.392 1461.2 313.564 1457.66 Q311.758 1454.1 308.124 1454.1 M308.124 1450.39 Q313.934 1450.39 316.989 1455 Q320.068 1459.58 320.068 1468.33 Q320.068 1477.06 316.989 1481.67 Q313.934 1486.25 308.124 1486.25 Q302.314 1486.25 299.235 1481.67 Q296.179 1477.06 296.179 1468.33 Q296.179 1459.58 299.235 1455 Q302.314 1450.39 308.124 1450.39 Z" fill="#000000" fill-rule="nonzero" fill-opacity="1" /><path clip-path="url(#clip310)" d="M328.286 1479.7 L333.17 1479.7 L333.17 1485.58 L328.286 1485.58 L328.286 1479.7 Z" fill="#000000" fill-rule="nonzero" fill-opacity="1" /><path clip-path="url(#clip310)" d="M353.355 1454.1 Q349.744 1454.1 347.915 1457.66 Q346.11 1461.2 346.11 1468.33 Q346.11 1475.44 347.915 1479.01 Q349.744 1482.55 353.355 1482.55 Q356.989 1482.55 358.795 1479.01 Q360.623 1475.44 360.623 1468.33 Q360.623 1461.2 358.795 1457.66 Q356.989 1454.1 353.355 1454.1 M353.355 1450.39 Q359.165 1450.39 362.221 1455 Q365.299 1459.58 365.299 1468.33 Q365.299 1477.06 362.221 1481.67 Q359.165 1486.25 353.355 1486.25 Q347.545 1486.25 344.466 1481.67 Q341.411 1477.06 341.411 1468.33 Q341.411 1459.58 344.466 1455 Q347.545 1450.39 353.355 1450.39 Z" fill="#000000" fill-rule="nonzero" fill-opacity="1" /><path clip-path="url(#clip310)" d="M383.517 1454.1 Q379.906 1454.1 378.077 1457.66 Q376.272 1461.2 376.272 1468.33 Q376.272 1475.44 378.077 1479.01 Q379.906 1482.55 383.517 1482.55 Q387.151 1482.55 388.957 1479.01 Q390.785 1475.44 390.785 1468.33 Q390.785 1461.2 388.957 1457.66 Q387.151 1454.1 383.517 1454.1 M383.517 1450.39 Q389.327 1450.39 392.383 1455 Q395.461 1459.58 395.461 1468.33 Q395.461 1477.06 392.383 1481.67 Q389.327 1486.25 383.517 1486.25 Q377.707 1486.25 374.628 1481.67 Q371.573 1477.06 371.573 1468.33 Q371.573 1459.58 374.628 1455 Q377.707 1450.39 383.517 1450.39 Z" fill="#000000" fill-rule="nonzero" fill-opacity="1" /><path clip-path="url(#clip310)" d="M795.742 1454.1 Q792.131 1454.1 790.302 1457.66 Q788.496 1461.2 788.496 1468.33 Q788.496 1475.44 790.302 1479.01 Q792.131 1482.55 795.742 1482.55 Q799.376 1482.55 801.182 1479.01 Q803.01 1475.44 803.01 1468.33 Q803.01 1461.2 801.182 1457.66 Q799.376 1454.1 795.742 1454.1 M795.742 1450.39 Q801.552 1450.39 804.607 1455 Q807.686 1459.58 807.686 1468.33 Q807.686 1477.06 804.607 1481.67 Q801.552 1486.25 795.742 1486.25 Q789.932 1486.25 786.853 1481.67 Q783.797 1477.06 783.797 1468.33 Q783.797 1459.58 786.853 1455 Q789.932 1450.39 795.742 1450.39 Z" fill="#000000" fill-rule="nonzero" fill-opacity="1" /><path clip-path="url(#clip310)" d="M815.904 1479.7 L820.788 1479.7 L820.788 1485.58 L815.904 1485.58 L815.904 1479.7 Z" fill="#000000" fill-rule="nonzero" fill-opacity="1" /><path clip-path="url(#clip310)" d="M835.001 1481.64 L851.32 1481.64 L851.32 1485.58 L829.376 1485.58 L829.376 1481.64 Q832.038 1478.89 836.621 1474.26 Q841.228 1469.61 842.408 1468.27 Q844.654 1465.74 845.533 1464.01 Q846.436 1462.25 846.436 1460.56 Q846.436 1457.8 844.491 1456.07 Q842.57 1454.33 839.468 1454.33 Q837.269 1454.33 834.816 1455.09 Q832.385 1455.86 829.607 1457.41 L829.607 1452.69 Q832.431 1451.55 834.885 1450.97 Q837.339 1450.39 839.376 1450.39 Q844.746 1450.39 847.941 1453.08 Q851.135 1455.77 851.135 1460.26 Q851.135 1462.39 850.325 1464.31 Q849.538 1466.2 847.431 1468.8 Q846.853 1469.47 843.751 1472.69 Q840.649 1475.88 835.001 1481.64 Z" fill="#000000" fill-rule="nonzero" fill-opacity="1" /><path clip-path="url(#clip310)" d="M861.181 1451.02 L879.538 1451.02 L879.538 1454.96 L865.464 1454.96 L865.464 1463.43 Q866.482 1463.08 867.501 1462.92 Q868.519 1462.73 869.538 1462.73 Q875.325 1462.73 878.704 1465.9 Q882.084 1469.08 882.084 1474.49 Q882.084 1480.07 878.612 1483.17 Q875.139 1486.25 868.82 1486.25 Q866.644 1486.25 864.376 1485.88 Q862.13 1485.51 859.723 1484.77 L859.723 1480.07 Q861.806 1481.2 864.028 1481.76 Q866.251 1482.32 868.727 1482.32 Q872.732 1482.32 875.07 1480.21 Q877.408 1478.1 877.408 1474.49 Q877.408 1470.88 875.07 1468.77 Q872.732 1466.67 868.727 1466.67 Q866.852 1466.67 864.977 1467.08 Q863.126 1467.5 861.181 1468.38 L861.181 1451.02 Z" fill="#000000" fill-rule="nonzero" fill-opacity="1" /><path clip-path="url(#clip310)" d="M1282.36 1454.1 Q1278.75 1454.1 1276.92 1457.66 Q1275.12 1461.2 1275.12 1468.33 Q1275.12 1475.44 1276.92 1479.01 Q1278.75 1482.55 1282.36 1482.55 Q1286 1482.55 1287.8 1479.01 Q1289.63 1475.44 1289.63 1468.33 Q1289.63 1461.2 1287.8 1457.66 Q1286 1454.1 1282.36 1454.1 M1282.36 1450.39 Q1288.17 1450.39 1291.23 1455 Q1294.31 1459.58 1294.31 1468.33 Q1294.31 1477.06 1291.23 1481.67 Q1288.17 1486.25 1282.36 1486.25 Q1276.55 1486.25 1273.48 1481.67 Q1270.42 1477.06 1270.42 1468.33 Q1270.42 1459.58 1273.48 1455 Q1276.55 1450.39 1282.36 1450.39 Z" fill="#000000" fill-rule="nonzero" fill-opacity="1" /><path clip-path="url(#clip310)" d="M1302.53 1479.7 L1307.41 1479.7 L1307.41 1485.58 L1302.53 1485.58 L1302.53 1479.7 Z" fill="#000000" fill-rule="nonzero" fill-opacity="1" /><path clip-path="url(#clip310)" d="M1317.64 1451.02 L1336 1451.02 L1336 1454.96 L1321.92 1454.96 L1321.92 1463.43 Q1322.94 1463.08 1323.96 1462.92 Q1324.98 1462.73 1326 1462.73 Q1331.79 1462.73 1335.16 1465.9 Q1338.54 1469.08 1338.54 1474.49 Q1338.54 1480.07 1335.07 1483.17 Q1331.6 1486.25 1325.28 1486.25 Q1323.1 1486.25 1320.84 1485.88 Q1318.59 1485.51 1316.18 1484.77 L1316.18 1480.07 Q1318.27 1481.2 1320.49 1481.76 Q1322.71 1482.32 1325.19 1482.32 Q1329.19 1482.32 1331.53 1480.21 Q1333.87 1478.1 1333.87 1474.49 Q1333.87 1470.88 1331.53 1468.77 Q1329.19 1466.67 1325.19 1466.67 Q1323.31 1466.67 1321.44 1467.08 Q1319.59 1467.5 1317.64 1468.38 L1317.64 1451.02 Z" fill="#000000" fill-rule="nonzero" fill-opacity="1" /><path clip-path="url(#clip310)" d="M1357.76 1454.1 Q1354.15 1454.1 1352.32 1457.66 Q1350.51 1461.2 1350.51 1468.33 Q1350.51 1475.44 1352.32 1479.01 Q1354.15 1482.55 1357.76 1482.55 Q1361.39 1482.55 1363.2 1479.01 Q1365.03 1475.44 1365.03 1468.33 Q1365.03 1461.2 1363.2 1457.66 Q1361.39 1454.1 1357.76 1454.1 M1357.76 1450.39 Q1363.57 1450.39 1366.62 1455 Q1369.7 1459.58 1369.7 1468.33 Q1369.7 1477.06 1366.62 1481.67 Q1363.57 1486.25 1357.76 1486.25 Q1351.95 1486.25 1348.87 1481.67 Q1345.81 1477.06 1345.81 1468.33 Q1345.81 1459.58 1348.87 1455 Q1351.95 1450.39 1357.76 1450.39 Z" fill="#000000" fill-rule="nonzero" fill-opacity="1" /><path clip-path="url(#clip310)" d="M1769.98 1454.1 Q1766.37 1454.1 1764.54 1457.66 Q1762.74 1461.2 1762.74 1468.33 Q1762.74 1475.44 1764.54 1479.01 Q1766.37 1482.55 1769.98 1482.55 Q1773.62 1482.55 1775.42 1479.01 Q1777.25 1475.44 1777.25 1468.33 Q1777.25 1461.2 1775.42 1457.66 Q1773.62 1454.1 1769.98 1454.1 M1769.98 1450.39 Q1775.79 1450.39 1778.85 1455 Q1781.93 1459.58 1781.93 1468.33 Q1781.93 1477.06 1778.85 1481.67 Q1775.79 1486.25 1769.98 1486.25 Q1764.17 1486.25 1761.09 1481.67 Q1758.04 1477.06 1758.04 1468.33 Q1758.04 1459.58 1761.09 1455 Q1764.17 1450.39 1769.98 1450.39 Z" fill="#000000" fill-rule="nonzero" fill-opacity="1" /><path clip-path="url(#clip310)" d="M1790.14 1479.7 L1795.03 1479.7 L1795.03 1485.58 L1790.14 1485.58 L1790.14 1479.7 Z" fill="#000000" fill-rule="nonzero" fill-opacity="1" /><path clip-path="url(#clip310)" d="M1804.03 1451.02 L1826.26 1451.02 L1826.26 1453.01 L1813.71 1485.58 L1808.82 1485.58 L1820.63 1454.96 L1804.03 1454.96 L1804.03 1451.02 Z" fill="#000000" fill-rule="nonzero" fill-opacity="1" /><path clip-path="url(#clip310)" d="M1835.42 1451.02 L1853.78 1451.02 L1853.78 1454.96 L1839.7 1454.96 L1839.7 1463.43 Q1840.72 1463.08 1841.74 1462.92 Q1842.76 1462.73 1843.78 1462.73 Q1849.57 1462.73 1852.94 1465.9 Q1856.32 1469.08 1856.32 1474.49 Q1856.32 1480.07 1852.85 1483.17 Q1849.38 1486.25 1843.06 1486.25 Q1840.88 1486.25 1838.62 1485.88 Q1836.37 1485.51 1833.96 1484.77 L1833.96 1480.07 Q1836.05 1481.2 1838.27 1481.76 Q1840.49 1482.32 1842.97 1482.32 Q1846.97 1482.32 1849.31 1480.21 Q1851.65 1478.1 1851.65 1474.49 Q1851.65 1470.88 1849.31 1468.77 Q1846.97 1466.67 1842.97 1466.67 Q1841.09 1466.67 1839.22 1467.08 Q1837.37 1467.5 1835.42 1468.38 L1835.42 1451.02 Z" fill="#000000" fill-rule="nonzero" fill-opacity="1" /><path clip-path="url(#clip310)" d="M2246.37 1481.64 L2254.01 1481.64 L2254.01 1455.28 L2245.7 1456.95 L2245.7 1452.69 L2253.97 1451.02 L2258.64 1451.02 L2258.64 1481.64 L2266.28 1481.64 L2266.28 1485.58 L2246.37 1485.58 L2246.37 1481.64 Z" fill="#000000" fill-rule="nonzero" fill-opacity="1" /><path clip-path="url(#clip310)" d="M2275.73 1479.7 L2280.61 1479.7 L2280.61 1485.58 L2275.73 1485.58 L2275.73 1479.7 Z" fill="#000000" fill-rule="nonzero" fill-opacity="1" /><path clip-path="url(#clip310)" d="M2300.79 1454.1 Q2297.18 1454.1 2295.35 1457.66 Q2293.55 1461.2 2293.55 1468.33 Q2293.55 1475.44 2295.35 1479.01 Q2297.18 1482.55 2300.79 1482.55 Q2304.43 1482.55 2306.23 1479.01 Q2308.06 1475.44 2308.06 1468.33 Q2308.06 1461.2 2306.23 1457.66 Q2304.43 1454.1 2300.79 1454.1 M2300.79 1450.39 Q2306.6 1450.39 2309.66 1455 Q2312.74 1459.58 2312.74 1468.33 Q2312.74 1477.06 2309.66 1481.67 Q2306.6 1486.25 2300.79 1486.25 Q2294.98 1486.25 2291.91 1481.67 Q2288.85 1477.06 2288.85 1468.33 Q2288.85 1459.58 2291.91 1455 Q2294.98 1450.39 2300.79 1450.39 Z" fill="#000000" fill-rule="nonzero" fill-opacity="1" /><path clip-path="url(#clip310)" d="M2330.96 1454.1 Q2327.35 1454.1 2325.52 1457.66 Q2323.71 1461.2 2323.71 1468.33 Q2323.71 1475.44 2325.52 1479.01 Q2327.35 1482.55 2330.96 1482.55 Q2334.59 1482.55 2336.4 1479.01 Q2338.22 1475.44 2338.22 1468.33 Q2338.22 1461.2 2336.4 1457.66 Q2334.59 1454.1 2330.96 1454.1 M2330.96 1450.39 Q2336.77 1450.39 2339.82 1455 Q2342.9 1459.58 2342.9 1468.33 Q2342.9 1477.06 2339.82 1481.67 Q2336.77 1486.25 2330.96 1486.25 Q2325.15 1486.25 2322.07 1481.67 Q2319.01 1477.06 2319.01 1468.33 Q2319.01 1459.58 2322.07 1455 Q2325.15 1450.39 2330.96 1450.39 Z" fill="#000000" fill-rule="nonzero" fill-opacity="1" /><path clip-path="url(#clip310)" d="M1203.24 1520.76 Q1203.24 1524.37 1200.57 1527.69 Q1197.93 1531 1193.61 1533.03 Q1189.33 1535.03 1184.72 1535.03 L1173.52 1535.03 L1169.43 1551.52 Q1169.39 1551.62 1169.3 1552.04 Q1169.2 1552.42 1169.2 1552.65 Q1169.2 1553.45 1170.2 1553.65 Q1171.23 1553.84 1173.52 1553.84 Q1175 1553.84 1175.22 1554.1 Q1175.35 1554.26 1175.35 1554.55 Q1175.35 1555 1175.22 1555.32 Q1175.09 1555.61 1174.84 1555.71 Q1174.61 1555.8 1174.45 1555.84 Q1174.29 1555.87 1174.03 1555.87 Q1173.35 1555.87 1171.91 1555.8 Q1170.49 1555.74 1169.75 1555.74 L1165.53 1555.67 L1157.15 1555.87 Q1156.16 1555.87 1156.16 1555.06 Q1156.16 1554.45 1156.41 1554.19 Q1156.67 1553.9 1156.96 1553.87 Q1157.25 1553.84 1157.99 1553.84 Q1159.6 1553.84 1160.57 1553.74 Q1161.53 1553.65 1162.15 1553.52 Q1162.79 1553.36 1163.11 1552.9 Q1163.47 1552.45 1163.63 1552.07 Q1163.79 1551.65 1164.01 1550.71 L1172.84 1515.29 Q1173.1 1514.23 1173.1 1514.06 Q1173.1 1513.52 1172.77 1513.32 Q1172.48 1513.1 1171.65 1513 Q1170.04 1512.87 1168.81 1512.87 Q1168.01 1512.87 1167.69 1512.84 Q1167.4 1512.81 1167.14 1512.65 Q1166.91 1512.45 1166.91 1512.07 Q1166.91 1511.46 1167.17 1511.2 Q1167.46 1510.91 1167.78 1510.88 Q1168.1 1510.81 1168.88 1510.81 L1190.26 1510.81 Q1196.41 1510.81 1199.83 1513.74 Q1203.24 1516.67 1203.24 1520.76 M1197.12 1519.19 Q1197.12 1512.87 1188.14 1512.87 L1181.82 1512.87 Q1179.73 1512.87 1179.22 1513.26 Q1178.7 1513.61 1178.25 1515.39 L1173.77 1533.32 L1183.08 1533.32 Q1189.33 1533.32 1193.23 1529.81 Q1195 1528.2 1196.06 1524.85 Q1197.12 1521.5 1197.12 1519.19 Z" fill="#000000" fill-rule="nonzero" fill-opacity="1" /><path clip-path="url(#clip310)" d="M1210.48 1539.38 Q1210.48 1528.24 1214.63 1519.25 Q1216.4 1515.48 1218.88 1512.33 Q1221.36 1509.17 1223.01 1507.78 Q1224.65 1506.4 1225.1 1506.4 Q1225.74 1506.4 1225.78 1507.04 Q1225.78 1507.37 1224.91 1508.17 Q1214.28 1518.99 1214.31 1539.38 Q1214.31 1559.83 1224.65 1570.23 Q1225.78 1571.36 1225.78 1571.71 Q1225.78 1572.36 1225.1 1572.36 Q1224.65 1572.36 1223.07 1571.04 Q1221.49 1569.72 1219.05 1566.69 Q1216.6 1563.66 1214.83 1559.96 Q1210.48 1550.97 1210.48 1539.38 Z" fill="#000000" fill-rule="nonzero" fill-opacity="1" /><path clip-path="url(#clip310)" d="M1265.66 1534.35 L1265.66 1555.87 L1259.81 1555.87 L1259.81 1534.54 Q1259.81 1529.48 1257.83 1526.97 Q1255.86 1524.45 1251.91 1524.45 Q1247.17 1524.45 1244.43 1527.48 Q1241.69 1530.5 1241.69 1535.72 L1241.69 1555.87 L1235.81 1555.87 L1235.81 1506.34 L1241.69 1506.34 L1241.69 1525.76 Q1243.8 1522.54 1246.63 1520.95 Q1249.49 1519.36 1253.22 1519.36 Q1259.36 1519.36 1262.51 1523.18 Q1265.66 1526.97 1265.66 1534.35 Z" fill="#000000" fill-rule="nonzero" fill-opacity="1" /><path clip-path="url(#clip310)" d="M1276.74 1541.8 L1276.74 1520.22 L1282.59 1520.22 L1282.59 1541.58 Q1282.59 1546.64 1284.57 1549.18 Q1286.54 1551.7 1290.49 1551.7 Q1295.23 1551.7 1297.97 1548.67 Q1300.74 1545.65 1300.74 1540.43 L1300.74 1520.22 L1306.59 1520.22 L1306.59 1555.87 L1300.74 1555.87 L1300.74 1550.39 Q1298.6 1553.64 1295.77 1555.23 Q1292.97 1556.79 1289.25 1556.79 Q1283.1 1556.79 1279.92 1552.97 Q1276.74 1549.15 1276.74 1541.8 M1291.47 1519.36 L1291.47 1519.36 Z" fill="#000000" fill-rule="nonzero" fill-opacity="1" /><path clip-path="url(#clip310)" d="M1348.29 1534.35 L1348.29 1555.87 L1342.43 1555.87 L1342.43 1534.54 Q1342.43 1529.48 1340.46 1526.97 Q1338.49 1524.45 1334.54 1524.45 Q1329.8 1524.45 1327.06 1527.48 Q1324.32 1530.5 1324.32 1535.72 L1324.32 1555.87 L1318.43 1555.87 L1318.43 1520.22 L1324.32 1520.22 L1324.32 1525.76 Q1326.42 1522.54 1329.26 1520.95 Q1332.12 1519.36 1335.84 1519.36 Q1341.99 1519.36 1345.14 1523.18 Q1348.29 1526.97 1348.29 1534.35 Z" fill="#000000" fill-rule="nonzero" fill-opacity="1" /><path clip-path="url(#clip310)" d="M1383.43 1537.63 Q1383.43 1531.26 1380.79 1527.76 Q1378.18 1524.26 1373.43 1524.26 Q1368.72 1524.26 1366.08 1527.76 Q1363.47 1531.26 1363.47 1537.63 Q1363.47 1543.96 1366.08 1547.47 Q1368.72 1550.97 1373.43 1550.97 Q1378.18 1550.97 1380.79 1547.47 Q1383.43 1543.96 1383.43 1537.63 M1389.28 1551.44 Q1389.28 1560.55 1385.24 1564.97 Q1381.2 1569.43 1372.86 1569.43 Q1369.77 1569.43 1367.04 1568.95 Q1364.3 1568.5 1361.72 1567.55 L1361.72 1561.85 Q1364.3 1563.25 1366.81 1563.92 Q1369.33 1564.59 1371.94 1564.59 Q1377.7 1564.59 1380.56 1561.57 Q1383.43 1558.57 1383.43 1552.49 L1383.43 1549.6 Q1381.61 1552.75 1378.78 1554.31 Q1375.95 1555.87 1372 1555.87 Q1365.44 1555.87 1361.43 1550.87 Q1357.42 1545.87 1357.42 1537.63 Q1357.42 1529.35 1361.43 1524.36 Q1365.44 1519.36 1372 1519.36 Q1375.95 1519.36 1378.78 1520.92 Q1381.61 1522.48 1383.43 1525.63 L1383.43 1520.22 L1389.28 1520.22 L1389.28 1551.44 Z" fill="#000000" fill-rule="nonzero" fill-opacity="1" /><path clip-path="url(#clip310)" d="M1422 1525.69 Q1421.02 1525.12 1419.84 1524.87 Q1418.69 1524.58 1417.29 1524.58 Q1412.33 1524.58 1409.65 1527.83 Q1407.01 1531.04 1407.01 1537.09 L1407.01 1555.87 L1401.12 1555.87 L1401.12 1520.22 L1407.01 1520.22 L1407.01 1525.76 Q1408.86 1522.51 1411.82 1520.95 Q1414.78 1519.36 1419.01 1519.36 Q1419.62 1519.36 1420.35 1519.46 Q1421.08 1519.52 1421.97 1519.68 L1422 1525.69 Z" fill="#000000" fill-rule="nonzero" fill-opacity="1" /><path clip-path="url(#clip310)" d="M1442.98 1559.18 Q1440.5 1565.54 1438.14 1567.49 Q1435.79 1569.43 1431.84 1569.43 L1427.16 1569.43 L1427.16 1564.53 L1430.6 1564.53 Q1433.02 1564.53 1434.35 1563.38 Q1435.69 1562.23 1437.31 1557.97 L1438.36 1555.29 L1423.94 1520.22 L1430.15 1520.22 L1441.29 1548.1 L1452.43 1520.22 L1458.64 1520.22 L1442.98 1559.18 Z" fill="#000000" fill-rule="nonzero" fill-opacity="1" /><path clip-path="url(#clip310)" d="M1458.64 1571.71 Q1458.64 1571.39 1459.48 1570.59 Q1470.1 1559.76 1470.1 1539.38 Q1470.1 1518.93 1459.89 1508.59 Q1458.64 1507.4 1458.64 1507.04 Q1458.64 1506.4 1459.28 1506.4 Q1459.73 1506.4 1461.31 1507.72 Q1462.92 1509.04 1465.34 1512.07 Q1467.78 1515.1 1469.59 1518.8 Q1473.94 1527.78 1473.94 1539.38 Q1473.94 1550.52 1469.78 1559.51 Q1468.01 1563.28 1465.53 1566.43 Q1463.05 1569.59 1461.41 1570.97 Q1459.77 1572.36 1459.28 1572.36 Q1458.64 1572.36 1458.64 1571.71 Z" fill="#000000" fill-rule="nonzero" fill-opacity="1" /><polyline clip-path="url(#clip312)" style="stroke:#000000; stroke-linecap:round; stroke-linejoin:round; stroke-width:2; stroke-opacity:0.1; fill:none" points="287.366,1345.28 2352.76,1345.28 "/>
<polyline clip-path="url(#clip312)" style="stroke:#000000; stroke-linecap:round; stroke-linejoin:round; stroke-width:2; stroke-opacity:0.1; fill:none" points="287.366,1115.43 2352.76,1115.43 "/>
<polyline clip-path="url(#clip312)" style="stroke:#000000; stroke-linecap:round; stroke-linejoin:round; stroke-width:2; stroke-opacity:0.1; fill:none" points="287.366,885.575 2352.76,885.575 "/>
<polyline clip-path="url(#clip312)" style="stroke:#000000; stroke-linecap:round; stroke-linejoin:round; stroke-width:2; stroke-opacity:0.1; fill:none" points="287.366,655.72 2352.76,655.72 "/>
<polyline clip-path="url(#clip312)" style="stroke:#000000; stroke-linecap:round; stroke-linejoin:round; stroke-width:2; stroke-opacity:0.1; fill:none" points="287.366,425.865 2352.76,425.865 "/>
<polyline clip-path="url(#clip312)" style="stroke:#000000; stroke-linecap:round; stroke-linejoin:round; stroke-width:2; stroke-opacity:0.1; fill:none" points="287.366,196.01 2352.76,196.01 "/>
<polyline clip-path="url(#clip310)" style="stroke:#000000; stroke-linecap:round; stroke-linejoin:round; stroke-width:4; stroke-opacity:1; fill:none" points="287.366,1423.18 287.366,47.2441 "/>
<polyline clip-path="url(#clip310)" style="stroke:#000000; stroke-linecap:round; stroke-linejoin:round; stroke-width:4; stroke-opacity:1; fill:none" points="287.366,1345.28 306.264,1345.28 "/>
<polyline clip-path="url(#clip310)" style="stroke:#000000; stroke-linecap:round; stroke-linejoin:round; stroke-width:4; stroke-opacity:1; fill:none" points="287.366,1115.43 306.264,1115.43 "/>
<polyline clip-path="url(#clip310)" style="stroke:#000000; stroke-linecap:round; stroke-linejoin:round; stroke-width:4; stroke-opacity:1; fill:none" points="287.366,885.575 306.264,885.575 "/>
<polyline clip-path="url(#clip310)" style="stroke:#000000; stroke-linecap:round; stroke-linejoin:round; stroke-width:4; stroke-opacity:1; fill:none" points="287.366,655.72 306.264,655.72 "/>
<polyline clip-path="url(#clip310)" style="stroke:#000000; stroke-linecap:round; stroke-linejoin:round; stroke-width:4; stroke-opacity:1; fill:none" points="287.366,425.865 306.264,425.865 "/>
<polyline clip-path="url(#clip310)" style="stroke:#000000; stroke-linecap:round; stroke-linejoin:round; stroke-width:4; stroke-opacity:1; fill:none" points="287.366,196.01 306.264,196.01 "/>
<path clip-path="url(#clip310)" d="M114.26 1345.74 L143.936 1345.74 L143.936 1349.67 L114.26 1349.67 L114.26 1345.74 Z" fill="#000000" fill-rule="nonzero" fill-opacity="1" /><path clip-path="url(#clip310)" d="M168.195 1343.93 Q171.552 1344.65 173.427 1346.92 Q175.325 1349.18 175.325 1352.52 Q175.325 1357.63 171.806 1360.43 Q168.288 1363.24 161.806 1363.24 Q159.63 1363.24 157.315 1362.8 Q155.024 1362.38 152.57 1361.52 L152.57 1357.01 Q154.515 1358.14 156.829 1358.72 Q159.144 1359.3 161.667 1359.3 Q166.065 1359.3 168.357 1357.56 Q170.672 1355.83 170.672 1352.52 Q170.672 1349.46 168.519 1347.75 Q166.39 1346.01 162.57 1346.01 L158.542 1346.01 L158.542 1342.17 L162.755 1342.17 Q166.204 1342.17 168.033 1340.81 Q169.862 1339.42 169.862 1336.82 Q169.862 1334.16 167.964 1332.75 Q166.089 1331.31 162.57 1331.31 Q160.649 1331.31 158.45 1331.73 Q156.251 1332.15 153.612 1333.03 L153.612 1328.86 Q156.274 1328.12 158.589 1327.75 Q160.927 1327.38 162.987 1327.38 Q168.311 1327.38 171.413 1329.81 Q174.514 1332.22 174.514 1336.34 Q174.514 1339.21 172.871 1341.2 Q171.227 1343.17 168.195 1343.93 Z" fill="#000000" fill-rule="nonzero" fill-opacity="1" /><path clip-path="url(#clip310)" d="M194.19 1331.08 Q190.579 1331.08 188.75 1334.65 Q186.945 1338.19 186.945 1345.32 Q186.945 1352.43 188.75 1355.99 Q190.579 1359.53 194.19 1359.53 Q197.825 1359.53 199.63 1355.99 Q201.459 1352.43 201.459 1345.32 Q201.459 1338.19 199.63 1334.65 Q197.825 1331.08 194.19 1331.08 M194.19 1327.38 Q200 1327.38 203.056 1331.99 Q206.135 1336.57 206.135 1345.32 Q206.135 1354.05 203.056 1358.65 Q200 1363.24 194.19 1363.24 Q188.38 1363.24 185.301 1358.65 Q182.246 1354.05 182.246 1345.32 Q182.246 1336.57 185.301 1331.99 Q188.38 1327.38 194.19 1327.38 Z" fill="#000000" fill-rule="nonzero" fill-opacity="1" /><path clip-path="url(#clip310)" d="M214.352 1356.68 L219.236 1356.68 L219.236 1362.56 L214.352 1362.56 L214.352 1356.68 Z" fill="#000000" fill-rule="nonzero" fill-opacity="1" /><path clip-path="url(#clip310)" d="M239.422 1331.08 Q235.81 1331.08 233.982 1334.65 Q232.176 1338.19 232.176 1345.32 Q232.176 1352.43 233.982 1355.99 Q235.81 1359.53 239.422 1359.53 Q243.056 1359.53 244.861 1355.99 Q246.69 1352.43 246.69 1345.32 Q246.69 1338.19 244.861 1334.65 Q243.056 1331.08 239.422 1331.08 M239.422 1327.38 Q245.232 1327.38 248.287 1331.99 Q251.366 1336.57 251.366 1345.32 Q251.366 1354.05 248.287 1358.65 Q245.232 1363.24 239.422 1363.24 Q233.611 1363.24 230.533 1358.65 Q227.477 1354.05 227.477 1345.32 Q227.477 1336.57 230.533 1331.99 Q233.611 1327.38 239.422 1327.38 Z" fill="#000000" fill-rule="nonzero" fill-opacity="1" /><path clip-path="url(#clip310)" d="M115.256 1115.88 L144.931 1115.88 L144.931 1119.82 L115.256 1119.82 L115.256 1115.88 Z" fill="#000000" fill-rule="nonzero" fill-opacity="1" /><path clip-path="url(#clip310)" d="M159.052 1128.77 L175.371 1128.77 L175.371 1132.71 L153.427 1132.71 L153.427 1128.77 Q156.089 1126.02 160.672 1121.39 Q165.278 1116.74 166.459 1115.39 Q168.704 1112.87 169.584 1111.14 Q170.487 1109.38 170.487 1107.69 Q170.487 1104.93 168.542 1103.2 Q166.621 1101.46 163.519 1101.46 Q161.32 1101.46 158.866 1102.22 Q156.436 1102.99 153.658 1104.54 L153.658 1099.82 Q156.482 1098.68 158.936 1098.1 Q161.39 1097.52 163.427 1097.52 Q168.797 1097.52 171.991 1100.21 Q175.186 1102.89 175.186 1107.39 Q175.186 1109.52 174.376 1111.44 Q173.589 1113.33 171.482 1115.93 Q170.903 1116.6 167.802 1119.82 Q164.7 1123.01 159.052 1128.77 Z" fill="#000000" fill-rule="nonzero" fill-opacity="1" /><path clip-path="url(#clip310)" d="M184.005 1098.15 L206.227 1098.15 L206.227 1100.14 L193.681 1132.71 L188.797 1132.71 L200.602 1102.08 L184.005 1102.08 L184.005 1098.15 Z" fill="#000000" fill-rule="nonzero" fill-opacity="1" /><path clip-path="url(#clip310)" d="M215.348 1126.83 L220.232 1126.83 L220.232 1132.71 L215.348 1132.71 L215.348 1126.83 Z" fill="#000000" fill-rule="nonzero" fill-opacity="1" /><path clip-path="url(#clip310)" d="M230.463 1098.15 L248.82 1098.15 L248.82 1102.08 L234.746 1102.08 L234.746 1110.56 Q235.764 1110.21 236.783 1110.05 Q237.801 1109.86 238.82 1109.86 Q244.607 1109.86 247.986 1113.03 Q251.366 1116.21 251.366 1121.62 Q251.366 1127.2 247.894 1130.3 Q244.421 1133.38 238.102 1133.38 Q235.926 1133.38 233.658 1133.01 Q231.412 1132.64 229.005 1131.9 L229.005 1127.2 Q231.088 1128.33 233.31 1128.89 Q235.533 1129.45 238.009 1129.45 Q242.014 1129.45 244.352 1127.34 Q246.69 1125.23 246.69 1121.62 Q246.69 1118.01 244.352 1115.9 Q242.014 1113.8 238.009 1113.8 Q236.135 1113.8 234.26 1114.21 Q232.408 1114.63 230.463 1115.51 L230.463 1098.15 Z" fill="#000000" fill-rule="nonzero" fill-opacity="1" /><path clip-path="url(#clip310)" d="M114.26 886.026 L143.936 886.026 L143.936 889.961 L114.26 889.961 L114.26 886.026 Z" fill="#000000" fill-rule="nonzero" fill-opacity="1" /><path clip-path="url(#clip310)" d="M158.056 898.92 L174.376 898.92 L174.376 902.855 L152.431 902.855 L152.431 898.92 Q155.093 896.165 159.677 891.535 Q164.283 886.883 165.464 885.54 Q167.709 883.017 168.589 881.281 Q169.491 879.522 169.491 877.832 Q169.491 875.077 167.547 873.341 Q165.626 871.605 162.524 871.605 Q160.325 871.605 157.871 872.369 Q155.44 873.133 152.663 874.684 L152.663 869.961 Q155.487 868.827 157.94 868.248 Q160.394 867.67 162.431 867.67 Q167.802 867.67 170.996 870.355 Q174.19 873.04 174.19 877.531 Q174.19 879.66 173.38 881.582 Q172.593 883.48 170.487 886.072 Q169.908 886.744 166.806 889.961 Q163.704 893.156 158.056 898.92 Z" fill="#000000" fill-rule="nonzero" fill-opacity="1" /><path clip-path="url(#clip310)" d="M184.237 868.295 L202.593 868.295 L202.593 872.23 L188.519 872.23 L188.519 880.702 Q189.538 880.355 190.556 880.193 Q191.575 880.008 192.593 880.008 Q198.38 880.008 201.76 883.179 Q205.139 886.35 205.139 891.767 Q205.139 897.346 201.667 900.447 Q198.195 903.526 191.875 903.526 Q189.7 903.526 187.431 903.156 Q185.186 902.785 182.778 902.045 L182.778 897.346 Q184.862 898.48 187.084 899.035 Q189.306 899.591 191.783 899.591 Q195.787 899.591 198.125 897.484 Q200.463 895.378 200.463 891.767 Q200.463 888.156 198.125 886.049 Q195.787 883.943 191.783 883.943 Q189.908 883.943 188.033 884.36 Q186.181 884.776 184.237 885.656 L184.237 868.295 Z" fill="#000000" fill-rule="nonzero" fill-opacity="1" /><path clip-path="url(#clip310)" d="M214.352 896.975 L219.236 896.975 L219.236 902.855 L214.352 902.855 L214.352 896.975 Z" fill="#000000" fill-rule="nonzero" fill-opacity="1" /><path clip-path="url(#clip310)" d="M239.422 871.373 Q235.81 871.373 233.982 874.938 Q232.176 878.48 232.176 885.61 Q232.176 892.716 233.982 896.281 Q235.81 899.822 239.422 899.822 Q243.056 899.822 244.861 896.281 Q246.69 892.716 246.69 885.61 Q246.69 878.48 244.861 874.938 Q243.056 871.373 239.422 871.373 M239.422 867.67 Q245.232 867.67 248.287 872.276 Q251.366 876.86 251.366 885.61 Q251.366 894.336 248.287 898.943 Q245.232 903.526 239.422 903.526 Q233.611 903.526 230.533 898.943 Q227.477 894.336 227.477 885.61 Q227.477 876.86 230.533 872.276 Q233.611 867.67 239.422 867.67 Z" fill="#000000" fill-rule="nonzero" fill-opacity="1" /><path clip-path="url(#clip310)" d="M115.256 656.171 L144.931 656.171 L144.931 660.107 L115.256 660.107 L115.256 656.171 Z" fill="#000000" fill-rule="nonzero" fill-opacity="1" /><path clip-path="url(#clip310)" d="M159.052 669.065 L175.371 669.065 L175.371 673 L153.427 673 L153.427 669.065 Q156.089 666.31 160.672 661.681 Q165.278 657.028 166.459 655.685 Q168.704 653.162 169.584 651.426 Q170.487 649.667 170.487 647.977 Q170.487 645.222 168.542 643.486 Q166.621 641.75 163.519 641.75 Q161.32 641.75 158.866 642.514 Q156.436 643.278 153.658 644.829 L153.658 640.107 Q156.482 638.972 158.936 638.394 Q161.39 637.815 163.427 637.815 Q168.797 637.815 171.991 640.5 Q175.186 643.185 175.186 647.676 Q175.186 649.806 174.376 651.727 Q173.589 653.625 171.482 656.218 Q170.903 656.889 167.802 660.107 Q164.7 663.301 159.052 669.065 Z" fill="#000000" fill-rule="nonzero" fill-opacity="1" /><path clip-path="url(#clip310)" d="M189.213 669.065 L205.533 669.065 L205.533 673 L183.588 673 L183.588 669.065 Q186.251 666.31 190.834 661.681 Q195.44 657.028 196.621 655.685 Q198.866 653.162 199.746 651.426 Q200.649 649.667 200.649 647.977 Q200.649 645.222 198.704 643.486 Q196.783 641.75 193.681 641.75 Q191.482 641.75 189.028 642.514 Q186.598 643.278 183.82 644.829 L183.82 640.107 Q186.644 638.972 189.098 638.394 Q191.551 637.815 193.588 637.815 Q198.959 637.815 202.153 640.5 Q205.348 643.185 205.348 647.676 Q205.348 649.806 204.537 651.727 Q203.75 653.625 201.644 656.218 Q201.065 656.889 197.963 660.107 Q194.862 663.301 189.213 669.065 Z" fill="#000000" fill-rule="nonzero" fill-opacity="1" /><path clip-path="url(#clip310)" d="M215.348 667.12 L220.232 667.12 L220.232 673 L215.348 673 L215.348 667.12 Z" fill="#000000" fill-rule="nonzero" fill-opacity="1" /><path clip-path="url(#clip310)" d="M230.463 638.44 L248.82 638.44 L248.82 642.375 L234.746 642.375 L234.746 650.847 Q235.764 650.5 236.783 650.338 Q237.801 650.153 238.82 650.153 Q244.607 650.153 247.986 653.324 Q251.366 656.495 251.366 661.912 Q251.366 667.491 247.894 670.593 Q244.421 673.671 238.102 673.671 Q235.926 673.671 233.658 673.301 Q231.412 672.931 229.005 672.19 L229.005 667.491 Q231.088 668.625 233.31 669.181 Q235.533 669.736 238.009 669.736 Q242.014 669.736 244.352 667.63 Q246.69 665.523 246.69 661.912 Q246.69 658.301 244.352 656.194 Q242.014 654.088 238.009 654.088 Q236.135 654.088 234.26 654.505 Q232.408 654.921 230.463 655.801 L230.463 638.44 Z" fill="#000000" fill-rule="nonzero" fill-opacity="1" /><path clip-path="url(#clip310)" d="M114.26 426.317 L143.936 426.317 L143.936 430.252 L114.26 430.252 L114.26 426.317 Z" fill="#000000" fill-rule="nonzero" fill-opacity="1" /><path clip-path="url(#clip310)" d="M158.056 439.21 L174.376 439.21 L174.376 443.145 L152.431 443.145 L152.431 439.21 Q155.093 436.455 159.677 431.826 Q164.283 427.173 165.464 425.83 Q167.709 423.307 168.589 421.571 Q169.491 419.812 169.491 418.122 Q169.491 415.368 167.547 413.631 Q165.626 411.895 162.524 411.895 Q160.325 411.895 157.871 412.659 Q155.44 413.423 152.663 414.974 L152.663 410.252 Q155.487 409.118 157.94 408.539 Q160.394 407.96 162.431 407.96 Q167.802 407.96 170.996 410.645 Q174.19 413.33 174.19 417.821 Q174.19 419.951 173.38 421.872 Q172.593 423.77 170.487 426.363 Q169.908 427.034 166.806 430.252 Q163.704 433.446 158.056 439.21 Z" fill="#000000" fill-rule="nonzero" fill-opacity="1" /><path clip-path="url(#clip310)" d="M194.19 411.664 Q190.579 411.664 188.75 415.229 Q186.945 418.77 186.945 425.9 Q186.945 433.006 188.75 436.571 Q190.579 440.113 194.19 440.113 Q197.825 440.113 199.63 436.571 Q201.459 433.006 201.459 425.9 Q201.459 418.77 199.63 415.229 Q197.825 411.664 194.19 411.664 M194.19 407.96 Q200 407.96 203.056 412.567 Q206.135 417.15 206.135 425.9 Q206.135 434.627 203.056 439.233 Q200 443.816 194.19 443.816 Q188.38 443.816 185.301 439.233 Q182.246 434.627 182.246 425.9 Q182.246 417.15 185.301 412.567 Q188.38 407.96 194.19 407.96 Z" fill="#000000" fill-rule="nonzero" fill-opacity="1" /><path clip-path="url(#clip310)" d="M214.352 437.266 L219.236 437.266 L219.236 443.145 L214.352 443.145 L214.352 437.266 Z" fill="#000000" fill-rule="nonzero" fill-opacity="1" /><path clip-path="url(#clip310)" d="M239.422 411.664 Q235.81 411.664 233.982 415.229 Q232.176 418.77 232.176 425.9 Q232.176 433.006 233.982 436.571 Q235.81 440.113 239.422 440.113 Q243.056 440.113 244.861 436.571 Q246.69 433.006 246.69 425.9 Q246.69 418.77 244.861 415.229 Q243.056 411.664 239.422 411.664 M239.422 407.96 Q245.232 407.96 248.287 412.567 Q251.366 417.15 251.366 425.9 Q251.366 434.627 248.287 439.233 Q245.232 443.816 239.422 443.816 Q233.611 443.816 230.533 439.233 Q227.477 434.627 227.477 425.9 Q227.477 417.15 230.533 412.567 Q233.611 407.96 239.422 407.96 Z" fill="#000000" fill-rule="nonzero" fill-opacity="1" /><path clip-path="url(#clip310)" d="M115.256 196.462 L144.931 196.462 L144.931 200.397 L115.256 200.397 L115.256 196.462 Z" fill="#000000" fill-rule="nonzero" fill-opacity="1" /><path clip-path="url(#clip310)" d="M155.834 209.355 L163.473 209.355 L163.473 182.99 L155.163 184.656 L155.163 180.397 L163.427 178.73 L168.102 178.73 L168.102 209.355 L175.741 209.355 L175.741 213.29 L155.834 213.29 L155.834 209.355 Z" fill="#000000" fill-rule="nonzero" fill-opacity="1" /><path clip-path="url(#clip310)" d="M184.005 178.73 L206.227 178.73 L206.227 180.721 L193.681 213.29 L188.797 213.29 L200.602 182.665 L184.005 182.665 L184.005 178.73 Z" fill="#000000" fill-rule="nonzero" fill-opacity="1" /><path clip-path="url(#clip310)" d="M215.348 207.411 L220.232 207.411 L220.232 213.29 L215.348 213.29 L215.348 207.411 Z" fill="#000000" fill-rule="nonzero" fill-opacity="1" /><path clip-path="url(#clip310)" d="M230.463 178.73 L248.82 178.73 L248.82 182.665 L234.746 182.665 L234.746 191.138 Q235.764 190.79 236.783 190.628 Q237.801 190.443 238.82 190.443 Q244.607 190.443 247.986 193.614 Q251.366 196.786 251.366 202.202 Q251.366 207.781 247.894 210.883 Q244.421 213.962 238.102 213.962 Q235.926 213.962 233.658 213.591 Q231.412 213.221 229.005 212.48 L229.005 207.781 Q231.088 208.915 233.31 209.471 Q235.533 210.026 238.009 210.026 Q242.014 210.026 244.352 207.92 Q246.69 205.813 246.69 202.202 Q246.69 198.591 244.352 196.485 Q242.014 194.378 238.009 194.378 Q236.135 194.378 234.26 194.795 Q232.408 195.212 230.463 196.091 L230.463 178.73 Z" fill="#000000" fill-rule="nonzero" fill-opacity="1" /><path clip-path="url(#clip310)" d="M21.7688 754.044 Q23.0893 754.044 23.0893 755.139 Q23.1537 757.071 23.5402 758.392 Q23.8944 759.712 24.6029 760.485 Q25.3115 761.226 26.0844 761.644 Q26.8252 762.031 27.9524 762.288 L51.366 768.15 Q57.9682 769.825 62.7669 775.235 Q67.5334 780.646 67.5334 786.797 Q67.5334 790.308 66.0841 793.238 Q64.6348 796.137 61.7041 797.94 Q58.7734 799.744 54.8765 799.744 Q53.0085 799.744 51.044 799.261 L34.7478 795.267 L28.9507 793.786 Q24.6674 792.691 24.2809 792.691 Q23.669 792.691 23.5079 793.077 Q23.3147 793.432 23.2181 794.462 L23.0893 796.974 Q23.0893 797.747 23.0571 798.069 Q23.0249 798.359 22.8638 798.584 Q22.7028 798.81 22.3485 798.81 Q21.8977 798.81 21.6078 798.713 Q21.2857 798.584 21.1891 798.359 Q21.0925 798.134 21.0603 797.973 Q21.0281 797.812 21.0281 797.554 L21.2213 789.052 L21.0281 780.614 Q21.0281 779.68 21.7688 779.68 Q22.7028 779.68 22.896 780.098 Q23.0893 780.517 23.0893 781.934 Q23.0893 784.349 23.4113 785.444 Q23.7012 786.507 24.2165 786.829 Q24.6996 787.119 26.1166 787.473 L51.7847 793.882 Q53.0729 794.204 54.3612 794.398 Q55.6172 794.559 56.2613 794.559 L56.9054 794.591 Q60.9956 794.591 63.25 792.337 Q65.5044 790.05 65.5044 786.539 Q65.5044 781.387 61.4142 776.588 Q57.3241 771.757 50.9151 770.114 L27.3726 764.189 Q26.7929 763.995 25.9878 763.995 Q24.6996 763.995 23.9266 764.962 Q23.1215 765.896 23.0893 768.472 Q23.0893 769.664 22.3485 769.664 Q21.7366 769.664 21.4468 769.438 Q21.1247 769.181 21.0925 768.987 Q21.0281 768.762 21.0281 768.472 Q21.0281 767.377 21.1247 765.058 Q21.2213 762.739 21.2213 761.612 Q21.2213 760.485 21.1247 758.231 Q21.0281 755.976 21.0281 754.881 Q21.0281 754.495 21.2213 754.301 Q21.3824 754.076 21.5756 754.044 L21.7688 754.044 Z" fill="#000000" fill-rule="nonzero" fill-opacity="1" /><path clip-path="url(#clip310)" d="M49.5947 746.702 Q38.4515 746.702 29.466 742.547 Q25.6979 740.776 22.5418 738.296 Q19.3856 735.816 18.0007 734.174 Q16.6159 732.531 16.6159 732.08 Q16.6159 731.436 17.26 731.404 Q17.5821 731.404 18.3872 732.274 Q29.2084 742.901 49.5947 742.869 Q70.0454 742.869 80.4479 732.531 Q81.5751 731.404 81.9294 731.404 Q82.5735 731.404 82.5735 732.08 Q82.5735 732.531 81.2531 734.109 Q79.9326 735.687 76.9053 738.135 Q73.8779 740.583 70.1742 742.354 Q61.1888 746.702 49.5947 746.702 Z" fill="#000000" fill-rule="nonzero" fill-opacity="1" /><path clip-path="url(#clip310)" d="M47.4691 700.787 Q52.1068 700.787 56.6478 703.138 Q61.1566 705.457 63.9907 709.193 Q66.8248 712.897 66.8248 716.697 Q66.8248 720.401 63.9907 722.752 Q61.1244 725.07 56.4545 725.07 Q54.812 725.07 53.6526 724.877 Q52.4932 724.684 49.7879 724.008 L28.2744 718.597 Q24.2487 717.663 24.2165 717.663 Q23.83 717.663 23.6368 717.824 Q23.4113 717.953 23.2503 718.726 Q23.0893 719.499 23.0893 720.98 Q23.0893 721.592 23.0571 721.882 Q23.0249 722.14 22.8638 722.365 Q22.6706 722.558 22.2841 722.558 Q21.7366 722.558 21.4468 722.333 Q21.1247 722.075 21.0603 721.882 Q20.9959 721.689 20.9637 721.302 Q20.9315 720.755 20.7704 718.919 Q20.5772 717.083 20.4484 715.505 Q20.3196 713.927 20.3196 713.251 Q20.3196 712.864 20.5128 712.671 Q20.6738 712.446 20.8671 712.446 L21.0281 712.413 L40.8991 717.277 Q36.9378 713.444 36.9378 709.547 Q36.9378 705.65 39.9329 703.235 Q42.9281 700.787 47.4691 700.787 M44.5706 705.554 Q41.511 705.554 39.9651 706.713 Q38.3871 707.84 38.3871 709.708 Q38.3871 711.286 39.5787 713.347 Q40.7703 715.409 43.6688 717.599 Q44.2163 718.017 44.5384 718.178 Q44.8604 718.307 45.9554 718.597 L52.0423 720.046 Q56.1969 721.109 58.709 721.109 Q62.1228 721.109 63.7331 719.853 Q65.3434 718.597 65.3434 716.697 Q65.3434 714.7 63.572 712.607 Q61.8007 710.513 58.5801 708.903 Q56.4545 707.905 51.8813 706.745 Q47.2759 705.554 44.5706 705.554 Z" fill="#000000" fill-rule="nonzero" fill-opacity="1" /><path clip-path="url(#clip310)" d="M81.9294 696.007 Q81.6073 696.007 80.8022 695.17 Q69.981 684.542 49.5947 684.542 Q29.144 684.542 18.8059 694.751 Q17.6143 696.007 17.26 696.007 Q16.6159 696.007 16.6159 695.363 Q16.6159 694.912 17.9363 693.334 Q19.2568 691.724 22.2841 689.309 Q25.3115 686.861 29.0151 685.057 Q38.0006 680.71 49.5947 680.71 Q60.7379 680.71 69.7234 684.864 Q73.4914 686.636 76.6476 689.115 Q79.8038 691.595 81.1886 693.238 Q82.5735 694.88 82.5735 695.363 Q82.5735 696.007 81.9294 696.007 Z" fill="#000000" fill-rule="nonzero" fill-opacity="1" /><polyline clip-path="url(#clip312)" style="stroke:#009af9; stroke-linecap:round; stroke-linejoin:round; stroke-width:4; stroke-opacity:1; fill:none" points="345.82,86.1857 832.941,590.618 1320.06,855.684 1807.18,1085.54 2294.3,1315.39 "/>
<polyline clip-path="url(#clip312)" style="stroke:#e26f46; stroke-linecap:round; stroke-linejoin:round; stroke-width:4; stroke-opacity:1; fill:none" points="345.82,202.33 832.941,425.714 1320.06,1021.96 1807.18,1178.2 2294.3,1384.24 "/>
<path clip-path="url(#clip310)" d="M1796.68 248.629 L2283.91 248.629 L2283.91 93.1086 L1796.68 93.1086  Z" fill="#ffffff" fill-rule="evenodd" fill-opacity="1"/>
<polyline clip-path="url(#clip310)" style="stroke:#000000; stroke-linecap:round; stroke-linejoin:round; stroke-width:4; stroke-opacity:1; fill:none" points="1796.68,248.629 2283.91,248.629 2283.91,93.1086 1796.68,93.1086 1796.68,248.629 "/>
<polyline clip-path="url(#clip310)" style="stroke:#009af9; stroke-linecap:round; stroke-linejoin:round; stroke-width:4; stroke-opacity:1; fill:none" points="1819.63,144.949 1957.32,144.949 "/>
<path clip-path="url(#clip310)" d="M2002.51 128.803 L2002.51 133.363 Q1999.85 132.09 1997.49 131.465 Q1995.13 130.84 1992.93 130.84 Q1989.11 130.84 1987.03 132.321 Q1984.97 133.803 1984.97 136.534 Q1984.97 138.826 1986.33 140.007 Q1987.72 141.164 1991.56 141.882 L1994.39 142.46 Q1999.62 143.456 2002.1 145.979 Q2004.6 148.479 2004.6 152.692 Q2004.6 157.715 2001.22 160.307 Q1997.86 162.9 1991.36 162.9 Q1988.9 162.9 1986.12 162.344 Q1983.37 161.789 1980.41 160.701 L1980.41 155.886 Q1983.25 157.483 1985.99 158.293 Q1988.72 159.104 1991.36 159.104 Q1995.36 159.104 1997.54 157.53 Q1999.71 155.956 1999.71 153.039 Q1999.71 150.493 1998.14 149.057 Q1996.59 147.622 1993.02 146.905 L1990.18 146.349 Q1984.94 145.307 1982.61 143.085 Q1980.27 140.863 1980.27 136.905 Q1980.27 132.321 1983.49 129.682 Q1986.73 127.044 1992.4 127.044 Q1994.83 127.044 1997.35 127.483 Q1999.87 127.923 2002.51 128.803 Z" fill="#000000" fill-rule="nonzero" fill-opacity="1" /><path clip-path="url(#clip310)" d="M2024.32 132.275 L2017.98 149.474 L2030.68 149.474 L2024.32 132.275 M2021.68 127.669 L2026.98 127.669 L2040.15 162.229 L2035.29 162.229 L2032.14 153.363 L2016.56 153.363 L2013.42 162.229 L2008.49 162.229 L2021.68 127.669 Z" fill="#000000" fill-rule="nonzero" fill-opacity="1" /><path clip-path="url(#clip310)" d="M2061.59 146.025 Q2063.09 146.534 2064.5 148.201 Q2065.94 149.868 2067.37 152.784 L2072.12 162.229 L2067.1 162.229 L2062.67 153.363 Q2060.96 149.891 2059.34 148.756 Q2057.74 147.622 2054.97 147.622 L2049.87 147.622 L2049.87 162.229 L2045.2 162.229 L2045.2 127.669 L2055.75 127.669 Q2061.68 127.669 2064.6 130.145 Q2067.51 132.622 2067.51 137.622 Q2067.51 140.886 2065.98 143.039 Q2064.48 145.192 2061.59 146.025 M2049.87 131.511 L2049.87 143.78 L2055.75 143.78 Q2059.13 143.78 2060.85 142.229 Q2062.58 140.655 2062.58 137.622 Q2062.58 134.59 2060.85 133.062 Q2059.13 131.511 2055.75 131.511 L2049.87 131.511 Z" fill="#000000" fill-rule="nonzero" fill-opacity="1" /><path clip-path="url(#clip310)" d="M2098.86 128.803 L2098.86 133.363 Q2096.19 132.09 2093.83 131.465 Q2091.47 130.84 2089.27 130.84 Q2085.45 130.84 2083.37 132.321 Q2081.31 133.803 2081.31 136.534 Q2081.31 138.826 2082.67 140.007 Q2084.06 141.164 2087.91 141.882 L2090.73 142.46 Q2095.96 143.456 2098.44 145.979 Q2100.94 148.479 2100.94 152.692 Q2100.94 157.715 2097.56 160.307 Q2094.2 162.9 2087.7 162.9 Q2085.24 162.9 2082.47 162.344 Q2079.71 161.789 2076.75 160.701 L2076.75 155.886 Q2079.6 157.483 2082.33 158.293 Q2085.06 159.104 2087.7 159.104 Q2091.7 159.104 2093.88 157.53 Q2096.05 155.956 2096.05 153.039 Q2096.05 150.493 2094.48 149.057 Q2092.93 147.622 2089.36 146.905 L2086.52 146.349 Q2081.29 145.307 2078.95 143.085 Q2076.61 140.863 2076.61 136.905 Q2076.61 132.321 2079.83 129.682 Q2083.07 127.044 2088.74 127.044 Q2091.17 127.044 2093.69 127.483 Q2096.22 127.923 2098.86 128.803 Z" fill="#000000" fill-rule="nonzero" fill-opacity="1" /><path clip-path="url(#clip310)" d="M2122.26 130.84 Q2117.17 130.84 2114.16 134.636 Q2111.17 138.432 2111.17 144.983 Q2111.17 151.511 2114.16 155.307 Q2117.17 159.104 2122.26 159.104 Q2127.35 159.104 2130.31 155.307 Q2133.3 151.511 2133.3 144.983 Q2133.3 138.432 2130.31 134.636 Q2127.35 130.84 2122.26 130.84 M2122.26 127.044 Q2129.53 127.044 2133.88 131.928 Q2138.23 136.789 2138.23 144.983 Q2138.23 153.155 2133.88 158.039 Q2129.53 162.9 2122.26 162.9 Q2114.97 162.9 2110.59 158.039 Q2106.24 153.178 2106.24 144.983 Q2106.24 136.789 2110.59 131.928 Q2114.97 127.044 2122.26 127.044 Z" fill="#000000" fill-rule="nonzero" fill-opacity="1" /><path clip-path="url(#clip310)" d="M2150.22 131.511 L2150.22 144.497 L2156.1 144.497 Q2159.36 144.497 2161.15 142.807 Q2162.93 141.118 2162.93 137.993 Q2162.93 134.891 2161.15 133.201 Q2159.36 131.511 2156.1 131.511 L2150.22 131.511 M2145.54 127.669 L2156.1 127.669 Q2161.91 127.669 2164.87 130.307 Q2167.86 132.923 2167.86 137.993 Q2167.86 143.108 2164.87 145.724 Q2161.91 148.34 2156.1 148.34 L2150.22 148.34 L2150.22 162.229 L2145.54 162.229 L2145.54 127.669 Z" fill="#000000" fill-rule="nonzero" fill-opacity="1" /><polyline clip-path="url(#clip310)" style="stroke:#e26f46; stroke-linecap:round; stroke-linejoin:round; stroke-width:4; stroke-opacity:1; fill:none" points="1819.63,196.789 1957.32,196.789 "/>
<path clip-path="url(#clip310)" d="M2000.78 189.138 L2000.78 193.12 Q1998.97 192.124 1997.14 191.638 Q1995.34 191.129 1993.49 191.129 Q1989.34 191.129 1987.05 193.768 Q1984.76 196.384 1984.76 201.129 Q1984.76 205.874 1987.05 208.513 Q1989.34 211.129 1993.49 211.129 Q1995.34 211.129 1997.14 210.643 Q1998.97 210.133 2000.78 209.138 L2000.78 213.073 Q1998.99 213.907 1997.07 214.323 Q1995.18 214.74 1993.02 214.74 Q1987.17 214.74 1983.72 211.059 Q1980.27 207.379 1980.27 201.129 Q1980.27 194.786 1983.74 191.152 Q1987.24 187.518 1993.3 187.518 Q1995.27 187.518 1997.14 187.935 Q1999.02 188.328 2000.78 189.138 Z" fill="#000000" fill-rule="nonzero" fill-opacity="1" /><path clip-path="url(#clip310)" d="M2018.23 191.129 Q2014.8 191.129 2012.81 193.814 Q2010.82 196.476 2010.82 201.129 Q2010.82 205.782 2012.79 208.467 Q2014.78 211.129 2018.23 211.129 Q2021.63 211.129 2023.62 208.444 Q2025.61 205.758 2025.61 201.129 Q2025.61 196.522 2023.62 193.837 Q2021.63 191.129 2018.23 191.129 M2018.23 187.518 Q2023.79 187.518 2026.96 191.129 Q2030.13 194.74 2030.13 201.129 Q2030.13 207.495 2026.96 211.129 Q2023.79 214.74 2018.23 214.74 Q2012.65 214.74 2009.48 211.129 Q2006.33 207.495 2006.33 201.129 Q2006.33 194.74 2009.48 191.129 Q2012.65 187.518 2018.23 187.518 Z" fill="#000000" fill-rule="nonzero" fill-opacity="1" /><path clip-path="url(#clip310)" d="M2057.37 193.12 Q2058.97 190.249 2061.19 188.884 Q2063.42 187.518 2066.42 187.518 Q2070.48 187.518 2072.67 190.365 Q2074.87 193.189 2074.87 198.421 L2074.87 214.069 L2070.59 214.069 L2070.59 198.559 Q2070.59 194.833 2069.27 193.027 Q2067.95 191.222 2065.24 191.222 Q2061.93 191.222 2060.01 193.421 Q2058.09 195.62 2058.09 199.416 L2058.09 214.069 L2053.81 214.069 L2053.81 198.559 Q2053.81 194.809 2052.49 193.027 Q2051.17 191.222 2048.42 191.222 Q2045.15 191.222 2043.23 193.444 Q2041.31 195.643 2041.31 199.416 L2041.31 214.069 L2037.03 214.069 L2037.03 188.143 L2041.31 188.143 L2041.31 192.171 Q2042.77 189.786 2044.8 188.652 Q2046.84 187.518 2049.64 187.518 Q2052.47 187.518 2054.43 188.953 Q2056.42 190.388 2057.37 193.12 Z" fill="#000000" fill-rule="nonzero" fill-opacity="1" /><path clip-path="url(#clip310)" d="M2087.49 210.18 L2087.49 223.93 L2083.21 223.93 L2083.21 188.143 L2087.49 188.143 L2087.49 192.078 Q2088.83 189.763 2090.87 188.652 Q2092.93 187.518 2095.78 187.518 Q2100.5 187.518 2103.44 191.268 Q2106.4 195.018 2106.4 201.129 Q2106.4 207.24 2103.44 210.99 Q2100.5 214.74 2095.78 214.74 Q2092.93 214.74 2090.87 213.629 Q2088.83 212.495 2087.49 210.18 M2101.98 201.129 Q2101.98 196.43 2100.04 193.768 Q2098.11 191.083 2094.73 191.083 Q2091.36 191.083 2089.41 193.768 Q2087.49 196.43 2087.49 201.129 Q2087.49 205.828 2089.41 208.513 Q2091.36 211.175 2094.73 211.175 Q2098.11 211.175 2100.04 208.513 Q2101.98 205.828 2101.98 201.129 Z" fill="#000000" fill-rule="nonzero" fill-opacity="1" /><path clip-path="url(#clip310)" d="M2128.48 192.124 Q2127.77 191.708 2126.91 191.522 Q2126.08 191.314 2125.06 191.314 Q2121.45 191.314 2119.5 193.675 Q2117.58 196.013 2117.58 200.411 L2117.58 214.069 L2113.3 214.069 L2113.3 188.143 L2117.58 188.143 L2117.58 192.171 Q2118.92 189.809 2121.08 188.675 Q2123.23 187.518 2126.31 187.518 Q2126.75 187.518 2127.28 187.587 Q2127.81 187.634 2128.46 187.749 L2128.48 192.124 Z" fill="#000000" fill-rule="nonzero" fill-opacity="1" /><path clip-path="url(#clip310)" d="M2154.09 200.041 L2154.09 202.124 L2134.5 202.124 Q2134.78 206.522 2137.14 208.837 Q2139.53 211.129 2143.76 211.129 Q2146.22 211.129 2148.51 210.527 Q2150.82 209.925 2153.09 208.721 L2153.09 212.749 Q2150.8 213.721 2148.39 214.231 Q2145.98 214.74 2143.51 214.74 Q2137.3 214.74 2133.67 211.129 Q2130.06 207.518 2130.06 201.36 Q2130.06 194.995 2133.48 191.268 Q2136.93 187.518 2142.77 187.518 Q2148 187.518 2151.03 190.897 Q2154.09 194.254 2154.09 200.041 M2149.83 198.791 Q2149.78 195.296 2147.86 193.212 Q2145.96 191.129 2142.81 191.129 Q2139.25 191.129 2137.1 193.143 Q2134.97 195.157 2134.64 198.814 L2149.83 198.791 Z" fill="#000000" fill-rule="nonzero" fill-opacity="1" /><path clip-path="url(#clip310)" d="M2177.6 188.907 L2177.6 192.934 Q2175.8 192.009 2173.85 191.546 Q2171.91 191.083 2169.83 191.083 Q2166.66 191.083 2165.06 192.055 Q2163.48 193.027 2163.48 194.971 Q2163.48 196.453 2164.62 197.309 Q2165.75 198.143 2169.18 198.907 L2170.64 199.231 Q2175.17 200.203 2177.07 201.985 Q2178.99 203.745 2178.99 206.916 Q2178.99 210.527 2176.12 212.633 Q2173.28 214.74 2168.28 214.74 Q2166.19 214.74 2163.92 214.323 Q2161.68 213.93 2159.18 213.12 L2159.18 208.721 Q2161.54 209.948 2163.83 210.573 Q2166.12 211.175 2168.37 211.175 Q2171.38 211.175 2173 210.157 Q2174.62 209.115 2174.62 207.24 Q2174.62 205.504 2173.44 204.578 Q2172.28 203.652 2168.32 202.796 L2166.84 202.448 Q2162.88 201.615 2161.12 199.902 Q2159.36 198.166 2159.36 195.157 Q2159.36 191.499 2161.96 189.509 Q2164.55 187.518 2169.32 187.518 Q2171.68 187.518 2173.76 187.865 Q2175.85 188.212 2177.6 188.907 Z" fill="#000000" fill-rule="nonzero" fill-opacity="1" /><path clip-path="url(#clip310)" d="M2202.3 188.907 L2202.3 192.934 Q2200.5 192.009 2198.55 191.546 Q2196.61 191.083 2194.53 191.083 Q2191.35 191.083 2189.76 192.055 Q2188.18 193.027 2188.18 194.971 Q2188.18 196.453 2189.32 197.309 Q2190.45 198.143 2193.88 198.907 L2195.34 199.231 Q2199.87 200.203 2201.77 201.985 Q2203.69 203.745 2203.69 206.916 Q2203.69 210.527 2200.82 212.633 Q2197.98 214.74 2192.98 214.74 Q2190.89 214.74 2188.62 214.323 Q2186.38 213.93 2183.88 213.12 L2183.88 208.721 Q2186.24 209.948 2188.53 210.573 Q2190.82 211.175 2193.07 211.175 Q2196.08 211.175 2197.7 210.157 Q2199.32 209.115 2199.32 207.24 Q2199.32 205.504 2198.14 204.578 Q2196.98 203.652 2193.02 202.796 L2191.54 202.448 Q2187.58 201.615 2185.82 199.902 Q2184.06 198.166 2184.06 195.157 Q2184.06 191.499 2186.66 189.509 Q2189.25 187.518 2194.02 187.518 Q2196.38 187.518 2198.46 187.865 Q2200.54 188.212 2202.3 188.907 Z" fill="#000000" fill-rule="nonzero" fill-opacity="1" /><path clip-path="url(#clip310)" d="M2232.65 200.041 L2232.65 202.124 L2213.07 202.124 Q2213.35 206.522 2215.71 208.837 Q2218.09 211.129 2222.33 211.129 Q2224.78 211.129 2227.07 210.527 Q2229.39 209.925 2231.66 208.721 L2231.66 212.749 Q2229.36 213.721 2226.96 214.231 Q2224.55 214.74 2222.07 214.74 Q2215.87 214.74 2212.23 211.129 Q2208.62 207.518 2208.62 201.36 Q2208.62 194.995 2212.05 191.268 Q2215.5 187.518 2221.33 187.518 Q2226.56 187.518 2229.6 190.897 Q2232.65 194.254 2232.65 200.041 M2228.39 198.791 Q2228.35 195.296 2226.42 193.212 Q2224.53 191.129 2221.38 191.129 Q2217.81 191.129 2215.66 193.143 Q2213.53 195.157 2213.21 198.814 L2228.39 198.791 Z" fill="#000000" fill-rule="nonzero" fill-opacity="1" /><path clip-path="url(#clip310)" d="M2256.7 192.078 L2256.7 178.05 L2260.96 178.05 L2260.96 214.069 L2256.7 214.069 L2256.7 210.18 Q2255.36 212.495 2253.3 213.629 Q2251.26 214.74 2248.39 214.74 Q2243.69 214.74 2240.73 210.99 Q2237.79 207.24 2237.79 201.129 Q2237.79 195.018 2240.73 191.268 Q2243.69 187.518 2248.39 187.518 Q2251.26 187.518 2253.3 188.652 Q2255.36 189.763 2256.7 192.078 M2242.19 201.129 Q2242.19 205.828 2244.11 208.513 Q2246.05 211.175 2249.43 211.175 Q2252.81 211.175 2254.76 208.513 Q2256.7 205.828 2256.7 201.129 Q2256.7 196.43 2254.76 193.768 Q2252.81 191.083 2249.43 191.083 Q2246.05 191.083 2244.11 193.768 Q2242.19 196.43 2242.19 201.129 Z" fill="#000000" fill-rule="nonzero" fill-opacity="1" /></svg>
